<svg xmlns="http://www.w3.org/2000/svg" viewBox="0 0 1080 200" width="1080" height="200" preserveAspectRatio="xMidYMid meet" style="width: 100%; height: 100%; transform: translate3d(0px, 0px, 0px);"><g clip-path="url(#__lottie_element_11)"><g transform="matrix(1.203179955482483,0,0,1.203179955482483,6.38970947265625,12.964683532714844)" opacity="1" style="display: block;"><g opacity="1" transform="matrix(1,0,0,1,62.676998138427734,73.38600158691406)"><path fill="rgb(0,0,0)" fill-opacity="1" d=" M58.98899841308594,-70.14600372314453 C58.98899841308594,-70.14600372314453 60.224998474121094,-24.384000778198242 60.224998474121094,-24.384000778198242 C60.224998474121094,-24.384000778198242 57.87300109863281,-24.384000778198242 57.87300109863281,-24.384000778198242 C57.11600112915039,-26.37700080871582 56.518001556396484,-27.892000198364258 56.11899948120117,-28.888999938964844 C53.72700119018555,-35.465999603271484 51.77399826049805,-40.32899856567383 50.29899978637695,-43.518001556396484 C47.49100112915039,-49.518001556396484 43.56800079345703,-54.92900085449219 38.73899841308594,-59.4630012512207 C35.29399871826172,-62.854000091552734 31.236000061035156,-65.55999755859375 26.780000686645508,-67.43499755859375 C22.382999420166016,-69.13099670410156 17.701000213623047,-69.97000122070312 12.98799991607666,-69.90699768066406 C6.013000011444092,-70.06500244140625 -0.875,-68.33000183105469 -6.942999839782715,-64.88400268554688 C-12.336999893188477,-61.59000015258789 -17.058000564575195,-57.301998138427734 -20.854000091552734,-52.24800109863281 C-25.270999908447266,-46.53799819946289 -28.829999923706055,-40.21200180053711 -31.417999267578125,-33.472999572753906 C-35.452999114990234,-22.68199920654297 -37.426998138427734,-11.229000091552734 -37.237998962402344,0.28999999165534973 C-37.37300109863281,10.081999778747559 -36.02899932861328,19.839000701904297 -33.25199890136719,29.229999542236328 C-30.94499969482422,37.18299865722656 -26.96299934387207,44.54999923706055 -21.57200050354004,50.834999084472656 C-16.940000534057617,56.1619987487793 -11.173999786376953,60.3849983215332 -4.697000026702881,63.19300079345703 C1.7799999713897705,66 8.803999900817871,67.32099914550781 15.857999801635742,67.05899810791016 C23.047000885009766,67.1780014038086 30.183000564575195,65.82099914550781 36.82600021362305,63.073001861572266 C42.611000061035156,60.702999114990234 47.61199951171875,56.75199890136719 51.25600051879883,51.672000885009766 C55.64899826049805,44.69499969482422 58.527000427246094,36.87200164794922 59.707000732421875,28.711999893188477 C59.707000732421875,28.711999893188477 62.05799865722656,29.110000610351562 62.05799865722656,29.110000610351562 C61.30699920654297,38.268001556396484 58.27899932861328,47.09199905395508 53.249000549316406,54.78200149536133 C48.65299987792969,61.02000045776367 42.395999908447266,65.83999633789062 35.191001892089844,68.69400024414062 C26.739999771118164,71.99600219726562 17.71500015258789,73.58100128173828 8.644000053405762,73.35700225830078 C-0.5059999823570251,73.46199798583984 -9.61400032043457,72.11599731445312 -18.343000411987305,69.37100219726562 C-31.58300018310547,65.23899841308594 -42.952999114990234,56.590999603271484 -50.47200012207031,44.93600082397461 C-58.40399932861328,32.35599899291992 -62.426998138427734,17.707000732421875 -62.03200149536133,2.8410000801086426 C-62.1609992980957,-9.003999710083008 -59.86800003051758,-20.750999450683594 -55.29499816894531,-31.679000854492188 C-51.242000579833984,-41.59199905395508 -44.757999420166016,-50.32400131225586 -36.441001892089844,-57.07099914550781 C-29.781999588012695,-62.26900100708008 -22.25,-66.23799896240234 -14.197999954223633,-68.79100036621094 C-5.85699987411499,-71.64800262451172 2.8959999084472656,-73.11599731445312 11.713000297546387,-73.13600158691406 C20.642000198364258,-73.02300262451172 29.490999221801758,-71.43399810791016 37.902000427246094,-68.43199920654297 C37.902000427246094,-68.43199920654297 46.3129997253418,-65.68099975585938 46.3129997253418,-65.68099975585938 C47.685001373291016,-65.13099670410156 49.14099884033203,-64.82099914550781 50.61800003051758,-64.76499938964844 C51.40399932861328,-64.79199981689453 52.172000885009766,-65.0009994506836 52.862998962402344,-65.3740005493164 C53.55500030517578,-65.74800109863281 54.1510009765625,-66.2760009765625 54.60499954223633,-66.91699981689453 C55.28200149536133,-67.98999786376953 55.85599899291992,-69.1240005493164 56.319000244140625,-70.30500030517578 C56.319000244140625,-70.30500030517578 58.98899841308594,-70.14600372314453 58.98899841308594,-70.14600372314453z"></path></g><g opacity="1" transform="matrix(1,0,0,1,177.2429962158203,100.29199981689453)"><path fill="rgb(0,0,0)" fill-opacity="1" d=" M-21.733999252319336,-12.545000076293945 C-21.972999572753906,-9.196000099182129 -22.132999420166016,-6.764999866485596 -22.132999420166016,-5.25 C-22.1299991607666,0.6389999985694885 -21.256999969482422,6.495999813079834 -19.54199981689453,12.130000114440918 C-18.07699966430664,17.235000610351562 -15.670999526977539,22.020000457763672 -12.446999549865723,26.240999221801758 C-9.383000373840332,30.05699920654297 -5.499000072479248,33.13600158691406 -1.0850000381469727,35.25 C3.3469998836517334,37.40999984741211 8.21399974822998,38.52799987792969 13.145000457763672,38.518001556396484 C16.70800018310547,38.54600143432617 20.246999740600586,37.92499923706055 23.589000701904297,36.685001373291016 C26.660999298095703,35.595001220703125 29.461999893188477,33.85499954223633 31.799999237060547,31.582000732421875 C34.76499938964844,28.292999267578125 36.935001373291016,24.364999771118164 38.138999938964844,20.101999282836914 C38.138999938964844,20.101999282836914 40.29199981689453,20.81999969482422 40.29199981689453,20.81999969482422 C38.95000076293945,28.089000701904297 34.849998474121094,34.558998107910156 28.850000381469727,38.87699890136719 C21.90399932861328,43.2599983215332 13.774999618530273,45.38999938964844 5.572000026702881,44.97600173950195 C-1.8279999494552612,45.15299987792969 -9.184000015258789,43.79600143432617 -16.033000946044922,40.9900016784668 C-22.077999114990234,38.27199935913086 -27.323999404907227,34.04399871826172 -31.261999130249023,28.711999893188477 C-37.23500061035156,20.451000213623047 -40.29199981689453,10.439000129699707 -39.95199966430664,0.25099998712539673 C-40.266998291015625,-6.64300012588501 -38.9379997253418,-13.512999534606934 -36.07600021362305,-19.79199981689453 C-33.2140007019043,-26.07200050354004 -28.898000717163086,-31.579999923706055 -23.488000869750977,-35.86399841308594 C-15.741999626159668,-42.07699966430664 -6.072000026702881,-45.38999938964844 3.8570001125335693,-45.231998443603516 C9.050000190734863,-45.29100036621094 14.20300006866455,-44.30099868774414 19.0049991607666,-42.321998596191406 C23.517000198364258,-40.45500183105469 27.538999557495117,-37.577999114990234 30.763999938964844,-33.9109992980957 C35.827999114990234,-27.922000885009766 38.486000061035156,-20.263999938964844 38.21900177001953,-12.425000190734863 C38.21900177001953,-12.425000190734863 -21.733999252319336,-12.545000076293945 -21.733999252319336,-12.545000076293945z M22.871999740600586,-16.5310001373291 C22.77199935913086,-22.052000045776367 21.493999481201172,-27.488000869750977 19.124000549316406,-32.47600173950195 C17.4060001373291,-35.720001220703125 14.880000114440918,-38.465999603271484 11.789999961853027,-40.448001861572266 C8.887999534606934,-42.347999572753906 5.492000102996826,-43.36000061035156 2.0230000019073486,-43.358001708984375 C-0.9369999766349792,-43.314998626708984 -3.8499999046325684,-42.61199951171875 -6.505000114440918,-41.301998138427734 C-9.159000396728516,-39.992000579833984 -11.48900032043457,-38.106998443603516 -13.324000358581543,-35.784000396728516 C-17.910999298095703,-30.440000534057617 -20.698999404907227,-23.788000106811523 -21.29599952697754,-16.770000457763672 C-21.29599952697754,-16.770000457763672 22.871999740600586,-16.5310001373291 22.871999740600586,-16.5310001373291z"></path></g><g opacity="1" transform="matrix(1,0,0,1,263.3699951171875,99.2750015258789)"><path fill="rgb(0,0,0)" fill-opacity="1" d=" M-5.853000164031982,-28.58799934387207 C-3.796999931335449,-32.395999908447266 -0.9419999718666077,-35.7140007019043 2.5169999599456787,-38.31399917602539 C8.14900016784668,-42.268001556396484 14.890999794006348,-44.33300018310547 21.770999908447266,-44.2140007019043 C25.391000747680664,-44.479000091552734 28.985000610351562,-43.43199920654297 31.895999908447266,-41.263999938964844 C32.89400100708008,-40.49300003051758 33.70100021362305,-39.500999450683594 34.25400161743164,-38.36800003051758 C34.80699920654297,-37.23400115966797 35.09199905395508,-35.987998962402344 35.084999084472656,-34.72700119018555 C35.112998962402344,-33.85300064086914 34.95600128173828,-32.981998443603516 34.625999450683594,-32.172000885009766 C34.297000885009766,-31.36199951171875 33.801998138427734,-30.6299991607666 33.172000885009766,-30.023000717163086 C32.52899932861328,-29.402999877929688 31.763999938964844,-28.92099952697754 30.92799949645996,-28.606000900268555 C30.091999053955078,-28.290000915527344 29.201000213623047,-28.14900016784668 28.30900001525879,-28.18899917602539 C27.158000946044922,-28.204999923706055 26.023000717163086,-28.469999313354492 24.983999252319336,-28.96500015258789 C23.944000244140625,-29.459999084472656 23.024999618530273,-30.174999237060547 22.288999557495117,-31.05900001525879 C22.288999557495117,-31.05900001525879 19.100000381469727,-34.527000427246094 19.100000381469727,-34.527000427246094 C17.981000900268555,-35.77899932861328 16.611000061035156,-36.779998779296875 15.079000473022461,-37.46699905395508 C13.54800033569336,-38.15399932861328 11.890000343322754,-38.5099983215332 10.211000442504883,-38.513999938964844 C5.586999893188477,-38.513999938964844 1.9589999914169312,-35.48400115966797 -0.6320000290870667,-29.5049991607666 C-3.5969998836517334,-21.5049991607666 -4.951000213623047,-12.996999740600586 -4.617000102996826,-4.4710001945495605 C-4.617000102996826,-4.4710001945495605 -4.617000102996826,14.621999740600586 -4.617000102996826,14.621999740600586 C-4.617000102996826,14.621999740600586 -4.617000102996826,22.594999313354492 -4.617000102996826,22.594999313354492 C-4.730000019073486,26.003999710083008 -4.448999881744385,29.415000915527344 -3.7799999713897705,32.7599983215332 C-3.2960000038146973,34.82899856567383 -2.1989998817443848,36.70500183105469 -0.6320000290870667,38.14099884033203 C2.430999994277954,40.4640007019043 6.070000171661377,41.9109992980957 9.892000198364258,42.32699966430664 C9.892000198364258,42.32699966430664 9.892000198364258,44.479000091552734 9.892000198364258,44.479000091552734 C9.892000198364258,44.479000091552734 -35.11199951171875,44.479000091552734 -35.11199951171875,44.479000091552734 C-35.11199951171875,44.479000091552734 -35.11199951171875,42.32699966430664 -35.11199951171875,42.32699966430664 C-32.064998626708984,42.066001892089844 -29.084999084472656,41.284000396728516 -26.302000045776367,40.01499938964844 C-24.381000518798828,38.82699966430664 -22.875999450683594,37.071998596191406 -21.996999740600586,34.992000579833984 C-21.097999572753906,32.72700119018555 -20.572999954223633,30.329999923706055 -20.44300079345703,27.89699935913086 C-20.124000549316406,24.746999740600586 -19.964000701904297,20.202999114990234 -19.964000701904297,14.223999977111816 C-19.964000701904297,14.223999977111816 -19.964000701904297,-10.928999900817871 -19.964000701904297,-10.928999900817871 C-19.87299919128418,-15.838000297546387 -20.04599952697754,-20.74799919128418 -20.48200035095215,-25.63800048828125 C-20.68199920654297,-28.066999435424805 -21.445999145507812,-30.413999557495117 -22.71500015258789,-32.49399948120117 C-23.731000900268555,-34.185001373291016 -25.19300079345703,-35.56399917602539 -26.940000534057617,-36.48099899291992 C-29.16699981689453,-37.457000732421875 -31.56399917602539,-37.98500061035156 -33.99599838256836,-38.03499984741211 C-33.99599838256836,-38.03499984741211 -33.99599838256836,-40.1879997253418 -33.99599838256836,-40.1879997253418 C-33.99599838256836,-40.1879997253418 -7.60699987411499,-43.85499954223633 -7.60699987411499,-43.85499954223633 C-6.572000026702881,-38.827999114990234 -5.985000133514404,-33.71900177001953 -5.853000164031982,-28.58799934387207z"></path></g><g opacity="1" transform="matrix(1,0,0,1,342.56201171875,99.80599975585938)"><path fill="rgb(0,0,0)" fill-opacity="1" d=" M-45.6619987487793,-43.349998474121094 C-45.6619987487793,-43.349998474121094 -5.800000190734863,-43.349998474121094 -5.800000190734863,-43.349998474121094 C-5.800000190734863,-43.349998474121094 -5.800000190734863,-41.077999114990234 -5.800000190734863,-41.077999114990234 C-7.953000068664551,-40.77799987792969 -10.032999992370605,-40.09000015258789 -11.939000129699707,-39.04499816894531 C-13.026000022888184,-38.354000091552734 -13.904000282287598,-37.38100051879883 -14.479999542236328,-36.229000091552734 C-15.055999755859375,-35.077999114990234 -15.307000160217285,-33.79100036621094 -15.206999778747559,-32.507999420166016 C-15.163999557495117,-30.33300018310547 -14.829000473022461,-28.174999237060547 -14.211000442504883,-26.09000015258789 C-13.532999992370605,-23.618000030517578 -12.258000373840332,-20.0310001373291 -10.225000381469727,-15.32699966430664 C-10.225000381469727,-15.32699966430664 6.2779998779296875,26.648000717163086 6.2779998779296875,26.648000717163086 C6.2779998779296875,26.648000717163086 22.94099998474121,-17.200000762939453 22.94099998474121,-17.200000762939453 C24.944000244140625,-21.76300048828125 26.183000564575195,-26.625 26.607999801635742,-31.590999603271484 C26.729999542236328,-33.000999450683594 26.506999969482422,-34.42100143432617 25.958999633789062,-35.72700119018555 C25.40999984741211,-37.03200149536133 24.552000045776367,-38.185001373291016 23.458999633789062,-39.084999084472656 C21.593000411987305,-40.17100143432617 19.535999298095703,-40.888999938964844 17.399999618530273,-41.196998596191406 C17.399999618530273,-41.196998596191406 17.399999618530273,-43.470001220703125 17.399999618530273,-43.470001220703125 C17.399999618530273,-43.470001220703125 45.6619987487793,-43.470001220703125 45.6619987487793,-43.470001220703125 C45.6619987487793,-43.470001220703125 45.6619987487793,-41.196998596191406 45.6619987487793,-41.196998596191406 C42.15299987792969,-40.45100021362305 38.946998596191406,-38.67499923706055 36.45399856567383,-36.095001220703125 C31.8700008392334,-30.33300018310547 28.322999954223633,-23.81800079345703 25.969999313354492,-16.841999053955078 C25.969999313354492,-16.841999053955078 2.3320000171661377,43.470001220703125 2.3320000171661377,43.470001220703125 C2.3320000171661377,43.470001220703125 -3.2090001106262207,43.470001220703125 -3.2090001106262207,43.470001220703125 C-3.2090001106262207,43.470001220703125 -28.84000015258789,-19.75200080871582 -28.84000015258789,-19.75200080871582 C-31.006000518798828,-25.934999465942383 -33.854000091552734,-31.857999801635742 -37.33100128173828,-37.4109992980957 C-38.18199920654297,-38.45800018310547 -39.277000427246094,-39.27899932861328 -40.52000045776367,-39.801998138427734 C-42.154998779296875,-40.45600128173828 -43.87200164794922,-40.8849983215332 -45.62200164794922,-41.077999114990234 C-45.62200164794922,-41.077999114990234 -45.6619987487793,-43.349998474121094 -45.6619987487793,-43.349998474121094z"></path></g><g opacity="1" transform="matrix(1,0,0,1,434.260986328125,100.23300170898438)"><path fill="rgb(0,0,0)" fill-opacity="1" d=" M41.141998291015625,33.2760009765625 C41.141998291015625,33.2760009765625 42.895999908447266,34.27299880981445 42.895999908447266,34.27299880981445 C40.4640007019043,41.448001861572266 34.92300033569336,45.0359992980957 26.034000396728516,45.0359992980957 C21.764999389648438,45.1510009765625 17.570999145507812,43.89400100708008 14.076000213623047,41.448001861572266 C11.401000022888184,39.23899841308594 9.180000305175781,36.53200149536133 7.538000106811523,33.47600173950195 C4.353000164031982,36.46799850463867 0.8809999823570251,39.138999938964844 -2.8259999752044678,41.448001861572266 C-7.577000141143799,44 -12.902999877929688,45.27799987792969 -18.29199981689453,45.154998779296875 C-24.697999954223633,45.49100112915039 -31.016000747680664,43.573001861572266 -36.152000427246094,39.73400115966797 C-38.31800079345703,37.979000091552734 -40.04399871826172,35.74300003051758 -41.19300079345703,33.202999114990234 C-42.34199905395508,30.663000106811523 -42.88199996948242,27.889999389648438 -42.76900100708008,25.104999542236328 C-42.895999908447266,22.464000701904297 -42.494998931884766,19.825000762939453 -41.59199905395508,17.340999603271484 C-40.68899917602539,14.857000350952148 -39.29999923706055,12.57699966430664 -37.507999420166016,10.635000228881836 C-35.48400115966797,8.531000137329102 -33.09299850463867,6.815000057220459 -30.450000762939453,5.572000026702881 C-26.731000900268555,3.88100004196167 -22.861000061035156,2.5460000038146973 -18.889999389648438,1.5859999656677246 C-12.951000213623047,0.07100000232458115 -8.565999984741211,-1.2039999961853027 -5.736000061035156,-2.2009999752044678 C-3.2049999237060547,-3.0840001106262207 -0.8130000233650208,-4.333000183105469 1.3600000143051147,-5.9079999923706055 C3.38100004196167,-7.243000030517578 4.954999923706055,-9.16100025177002 5.863999843597412,-11.409000396728516 C6.801000118255615,-14.246999740600586 7.218999862670898,-17.23200035095215 7.099999904632568,-20.218000411987305 C7.578000068664551,-26.389999389648438 5.995999813079834,-32.54600143432617 2.5950000286102295,-37.71799850463867 C1.1799999475479126,-39.44300079345703 -0.6259999871253967,-40.808998107910156 -2.6670000553131104,-41.70399856567383 C-4.750999927520752,-42.724998474121094 -7.043000221252441,-43.25600051879883 -9.36299991607666,-43.25899887084961 C-12.022000312805176,-43.29999923706055 -14.628999710083008,-42.55099868774414 -16.85700035095215,-41.10599899291992 C-19.030000686645508,-39.63999938964844 -20.736000061035156,-37.577999114990234 -21.760000228881836,-35.16699981689453 C-21.760000228881836,-35.16699981689453 -24.312000274658203,-29.226999282836914 -24.312000274658203,-29.226999282836914 C-24.865999221801758,-27.743999481201172 -25.881999969482422,-26.47800064086914 -27.209999084472656,-25.617000579833984 C-28.53700065612793,-24.756000518798828 -30.107999801635742,-24.3439998626709 -31.68600082397461,-24.444000244140625 C-32.762001037597656,-24.410999298095703 -33.83100128173828,-24.59600067138672 -34.83100128173828,-24.986000061035156 C-35.82899856567383,-25.37700080871582 -36.7400016784668,-25.96500015258789 -37.507999420166016,-26.715999603271484 C-38.268001556396484,-27.472000122070312 -38.86800003051758,-28.37299919128418 -39.27199935913086,-29.365999221801758 C-39.67599868774414,-30.358999252319336 -39.875999450683594,-31.423999786376953 -39.85900115966797,-32.49599838256836 C-39.85900115966797,-36.00400161743164 -37.38800048828125,-38.91400146484375 -32.483001708984375,-41.30500030517578 C-29.31800079345703,-42.69300079345703 -26.00200080871582,-43.709999084472656 -22.597999572753906,-44.334999084472656 C-18.80699920654297,-45.104000091552734 -14.947999954223633,-45.49100112915039 -11.07699966430664,-45.49100112915039 C-6.617000102996826,-45.47700119018555 -2.1760001182556152,-44.92900085449219 2.1570000648498535,-43.856998443603516 C6.15500020980835,-42.99599838256836 10.017999649047852,-41.5880012512207 13.63700008392334,-39.67100143432617 C15.61400032043457,-38.691001892089844 17.371999740600586,-37.314998626708984 18.798999786376953,-35.62799835205078 C20.22599983215332,-33.941001892089844 21.291000366210938,-31.979999542236328 21.92799949645996,-29.864999771118164 C22.610000610351562,-26.468000411987305 22.888999938964844,-23.003000259399414 22.764999389648438,-19.541000366210938 C22.764999389648438,-19.541000366210938 22.764999389648438,18.60700035095215 22.764999389648438,18.60700035095215 C22.606000900268555,22.993999481201172 22.87299919128418,27.38599967956543 23.562999725341797,31.722000122070312 C23.746000289916992,33.779998779296875 24.7189998626709,35.6870002746582 26.2810001373291,37.04100036621094 C27.8439998626709,38.39400100708008 29.868999481201172,39.0880012512207 31.93400001525879,38.97700119018555 C33.667999267578125,39.06999969482422 35.39799880981445,38.66899871826172 36.91600036621094,37.82099914550781 C38.590999603271484,36.57699966430664 40.02199935913086,35.0369987487793 41.141998291015625,33.2760009765625z M7.298999786376953,-7.064000129699707 C3.5999999046325684,-3.996999979019165 -0.4059999883174896,-1.3250000476837158 -4.659999847412109,0.9079999923706055 C-8.218999862670898,2.7219998836517334 -11.666999816894531,4.744999885559082 -14.984000205993652,6.9670000076293945 C-16.929000854492188,8.357000350952148 -18.67099952697754,10.006999969482422 -20.166000366210938,11.869999885559082 C-23.35099983215332,15.755000114440918 -25.06100082397461,20.639999389648438 -24.98900032043457,25.663000106811523 C-25.128999710083008,29.714000701904297 -23.801000595092773,33.678001403808594 -21.242000579833984,36.82400131225586 C-20.118000030517578,38.22800064086914 -18.683000564575195,39.354000091552734 -17.05299949645996,40.1150016784668 C-15.42199993133545,40.875 -13.63700008392334,41.25 -11.835000038146973,41.20899963378906 C-8.4350004196167,41.20600128173828 -5.125999927520752,40.117000579833984 -2.38700008392334,38.099998474121094 C0.5740000009536743,36.000999450683594 2.8940000534057617,33.1150016784668 4.309000015258789,29.768999099731445 C6.729000091552734,23.415000915527344 7.801000118255615,16.628000259399414 7.458000183105469,9.838000297546387 C7.458000183105469,9.838000297546387 7.298999786376953,-7.064000129699707 7.298999786376953,-7.064000129699707z"></path></g><g opacity="1" transform="matrix(1,0,0,1,529.39599609375,99.1259994506836)"><path fill="rgb(0,0,0)" fill-opacity="1" d=" M-22.979999542236328,-44.064998626708984 C-22.066999435424805,-40.441001892089844 -21.586000442504883,-36.72100067138672 -21.54599952697754,-32.983001708984375 C-21.54599952697754,-32.983001708984375 -21.54599952697754,-31.30900001525879 -21.54599952697754,-31.30900001525879 C-17.663000106811523,-35.39500045776367 -12.979999542236328,-38.63600158691406 -7.789999961853027,-40.83100128173828 C-2.5959999561309814,-43.025001525878906 2.993000030517578,-44.125999450683594 8.630000114440918,-44.064998626708984 C16.139999389648438,-44.42900085449219 23.55900001525879,-42.28300094604492 29.718000411987305,-37.965999603271484 C32.340999603271484,-35.96500015258789 34.43600082397461,-33.354000091552734 35.82400131225586,-30.361000061035156 C37.21500015258789,-27.368000030517578 37.85200119018555,-24.08099937438965 37.68899917602539,-20.785999298095703 C37.68899917602539,-20.785999298095703 37.68899917602539,22.54400062561035 37.68899917602539,22.54400062561035 C37.573001861572266,25.952999114990234 37.85599899291992,29.36400032043457 38.5260009765625,32.70899963378906 C39.02399826049805,34.77299880981445 40.12099838256836,36.64400100708008 41.67499923706055,38.090999603271484 C44.75299835205078,40.41400146484375 48.404998779296875,41.86000061035156 52.2400016784668,42.2760009765625 C52.2400016784668,42.2760009765625 52.2400016784668,44.42900085449219 52.2400016784668,44.42900085449219 C52.2400016784668,44.42900085449219 6.875999927520752,44.42900085449219 6.875999927520752,44.42900085449219 C6.875999927520752,44.42900085449219 6.875999927520752,42.2760009765625 6.875999927520752,42.2760009765625 C9.920999526977539,42.020999908447266 12.902999877929688,41.23899841308594 15.6850004196167,39.9640007019043 C17.634000778198242,38.79499816894531 19.14900016784668,37.01599884033203 19.989999771118164,34.902000427246094 C20.902999877929688,32.63999938964844 21.44099998474121,30.243000030517578 21.584999084472656,27.805999755859375 C21.86400032043457,24.617000579833984 22.023000717163086,20.072999954223633 22.023000717163086,14.17300033569336 C22.023000717163086,14.17300033569336 22.023000717163086,-7.51200008392334 22.023000717163086,-7.51200008392334 C22.131000518798828,-12.970000267028809 21.875999450683594,-18.43000030517578 21.266000747680664,-23.854999542236328 C20.934999465942383,-26.827999114990234 19.937999725341797,-29.690000534057617 18.356000900268555,-32.22600173950195 C16.694000244140625,-34.696998596191406 14.354999542236328,-36.63600158691406 11.619999885559082,-37.80699920654297 C8.571000099182129,-39.15800094604492 5.264999866485596,-39.8380012512207 1.9329999685287476,-39.79999923706055 C-1.753999948501587,-39.82899856567383 -5.3979997634887695,-39.05400085449219 -8.75,-37.52799987792969 C-11.763999938964844,-36.21099853515625 -14.38700008392334,-34.137001037597656 -16.36400032043457,-31.507999420166016 C-18.39699935913086,-28.77899932861328 -19.763999938964844,-25.61199951171875 -20.350000381469727,-22.260000228881836 C-21.131000518798828,-16.59600067138672 -21.45400047302246,-10.876999855041504 -21.30699920654297,-5.159999847412109 C-21.30699920654297,-5.159999847412109 -21.30699920654297,14.770999908447266 -21.30699920654297,14.770999908447266 C-21.30699920654297,14.770999908447266 -21.30699920654297,22.344999313354492 -21.30699920654297,22.344999313354492 C-21.43000030517578,25.753000259399414 -21.163000106811523,29.163000106811523 -20.510000228881836,32.5099983215332 C-20.014999389648438,34.58399963378906 -18.902999877929688,36.45899963378906 -17.320999145507812,37.89099884033203 C-14.258999824523926,40.21500015258789 -10.619999885559082,41.6619987487793 -6.796999931335449,42.07699966430664 C-6.796999931335449,42.07699966430664 -6.796999931335449,44.229000091552734 -6.796999931335449,44.229000091552734 C-6.796999931335449,44.229000091552734 -52.2400016784668,44.229000091552734 -52.2400016784668,44.229000091552734 C-52.2400016784668,44.229000091552734 -52.2400016784668,42.07699966430664 -52.2400016784668,42.07699966430664 C-49.20600128173828,41.81700134277344 -46.2400016784668,41.03499984741211 -43.470001220703125,39.76499938964844 C-41.52899932861328,38.60100173950195 -40.018001556396484,36.8390007019043 -39.165000915527344,34.742000579833984 C-38.25199890136719,32.47999954223633 -37.7140007019043,30.08300018310547 -37.57099914550781,27.64699935913086 C-37.25199890136719,24.49799919128418 -37.09199905395508,19.952999114990234 -37.09199905395508,13.973999977111816 C-37.09199905395508,13.973999977111816 -37.09199905395508,-11.178999900817871 -37.09199905395508,-11.178999900817871 C-37.09199905395508,-18.155000686645508 -37.29100036621094,-23.136999130249023 -37.61000061035156,-25.88800048828125 C-37.84199905395508,-28.31599998474121 -38.61899948120117,-30.659000396728516 -39.88199996948242,-32.74399948120117 C-40.84299850463867,-34.39799880981445 -42.21699905395508,-35.77199935913086 -43.86800003051758,-36.72999954223633 C-46.09600067138672,-37.707000732421875 -48.49300003051758,-38.23500061035156 -50.92399978637695,-38.28499984741211 C-50.92399978637695,-38.28499984741211 -50.92399978637695,-40.4379997253418 -50.92399978637695,-40.4379997253418 C-50.92399978637695,-40.4379997253418 -22.979999542236328,-44.064998626708984 -22.979999542236328,-44.064998626708984z"></path></g><g opacity="1" transform="matrix(1,0,0,1,615.1599731445312,87.96600341796875)"><path fill="rgb(0,0,0)" fill-opacity="1" d=" M-2.4709999561309814,-31.510000228881836 C-2.4709999561309814,-31.510000228881836 23.518999099731445,-31.510000228881836 23.518999099731445,-31.510000228881836 C23.518999099731445,-31.510000228881836 23.518999099731445,-27.524999618530273 23.518999099731445,-27.524999618530273 C23.518999099731445,-27.524999618530273 -2.4709999561309814,-27.524999618530273 -2.4709999561309814,-27.524999618530273 C-2.4709999561309814,-27.524999618530273 -2.4709999561309814,31.989999771118164 -2.4709999561309814,31.989999771118164 C-2.937000036239624,37.36800003051758 -1.6540000438690186,42.75199890136719 1.1959999799728394,47.33700180053711 C2.5320000648498535,49.07400131225586 4.289000034332275,50.444000244140625 6.297999858856201,51.321998596191406 C8.437999725341797,52.28499984741211 10.762999534606934,52.775001525878906 13.114999771118164,52.75699996948242 C15.789999961853027,52.85100173950195 18.437000274658203,52.202999114990234 20.768999099731445,50.8849983215332 C23.415000915527344,49.01900100708008 25.698999404907227,46.680999755859375 27.5049991607666,43.98899841308594 C27.5049991607666,43.98899841308594 29.05900001525879,45.30400085449219 29.05900001525879,45.30400085449219 C26.93000030517578,49.25600051879883 23.611000061035156,52.4370002746582 19.572999954223633,54.393001556396484 C14.800999641418457,56.53099822998047 9.607000350952148,57.55400085449219 4.385000228881836,57.38199996948242 C-1.8450000286102295,57.900001525878906 -8.0600004196167,56.237998962402344 -13.194000244140625,52.67900085449219 C-15.114999771118164,51.18199920654297 -16.51099967956543,49.117000579833984 -17.180999755859375,46.77899932861328 C-17.941999435424805,42.720001220703125 -18.249000549316406,38.5890007019043 -18.097999572753906,34.46200180053711 C-18.097999572753906,34.46200180053711 -18.097999572753906,-27.604000091552734 -18.097999572753906,-27.604000091552734 C-18.097999572753906,-27.604000091552734 -29.05900001525879,-27.604000091552734 -29.05900001525879,-27.604000091552734 C-29.05900001525879,-27.604000091552734 -29.05900001525879,-29.238000869750977 -29.05900001525879,-29.238000869750977 C-24.30699920654297,-30.889999389648438 -20.062999725341797,-33.74700164794922 -16.743000030517578,-37.52899932861328 C-14.605999946594238,-39.75899887084961 -12.720000267028809,-42.220001220703125 -11.121000289916992,-44.8650016784668 C-9.467000007629395,-47.93600082397461 -8.130999565124512,-51.16699981689453 -7.135000228881836,-54.5099983215332 C-7.135000228881836,-54.5099983215332 -6.098999977111816,-57.900001525878906 -6.098999977111816,-57.900001525878906 C-6.098999977111816,-57.900001525878906 -2.4709999561309814,-57.900001525878906 -2.4709999561309814,-57.900001525878906 C-2.4709999561309814,-57.900001525878906 -2.4709999561309814,-31.510000228881836 -2.4709999561309814,-31.510000228881836z"></path></g><g opacity="1" transform="matrix(1,0,0,1,684.0360107421875,100.28700256347656)"><path fill="rgb(0,0,0)" fill-opacity="1" d=" M-21.7189998626709,-12.539999961853027 C-21.99799919128418,-9.190999984741211 -22.117000579833984,-6.760000228881836 -22.117000579833984,-5.244999885559082 C-22.117000579833984,0.6439999938011169 -21.243999481201172,6.500999927520752 -19.525999069213867,12.135000228881836 C-18.062999725341797,17.239999771118164 -15.656999588012695,22.024999618530273 -12.432000160217285,26.246000289916992 C-9.369999885559082,30.062000274658203 -5.486999988555908,33.14099884033203 -1.0700000524520874,35.255001068115234 C3.3589999675750732,37.41899871826172 8.229999542236328,38.53799819946289 13.16100025177002,38.52299880981445 C16.724000930786133,38.547000885009766 20.259000778198242,37.92599868774414 23.604000091552734,36.689998626708984 C26.66900062561035,35.59000015258789 29.468000411987305,33.85100173950195 31.81599998474121,31.586999893188477 C34.76599884033203,28.28700065612793 36.93000030517578,24.36199951171875 38.15399932861328,20.10700035095215 C38.15399932861328,20.10700035095215 40.26599884033203,20.825000762939453 40.26599884033203,20.825000762939453 C38.96200180053711,28.100000381469727 34.87300109863281,34.58000183105469 28.864999771118164,38.88199996948242 C21.91699981689453,43.26499938964844 13.786999702453613,45.39500045776367 5.586999893188477,44.98099899291992 C-1.7999999523162842,45.154998779296875 -9.142999649047852,43.79800033569336 -15.979000091552734,40.994998931884766 C-22.0310001373291,38.2859992980957 -27.274999618530273,34.055999755859375 -31.20599937438965,28.716999053955078 C-37.19300079345703,20.461999893188477 -40.266998291015625,10.449000358581543 -39.9370002746582,0.25600001215934753 C-40.255001068115234,-6.633999824523926 -38.930999755859375,-13.50100040435791 -36.073001861572266,-19.780000686645508 C-33.21900177001953,-26.058000564575195 -28.913999557495117,-31.569000244140625 -23.511999130249023,-35.85900115966797 C-15.758999824523926,-42.08100128173828 -6.068999767303467,-45.39500045776367 3.872999906539917,-45.22700119018555 C9.062999725341797,-45.28300094604492 14.217000007629395,-44.292999267578125 19.020000457763672,-42.31700134277344 C23.533000946044922,-40.45000076293945 27.55500030517578,-37.573001861572266 30.780000686645508,-33.90599822998047 C35.84199905395508,-27.91699981689453 38.500999450683594,-20.259000778198242 38.23400115966797,-12.420000076293945 C38.23400115966797,-12.420000076293945 -21.7189998626709,-12.539999961853027 -21.7189998626709,-12.539999961853027z M22.886999130249023,-16.525999069213867 C22.78700065612793,-22.047000885009766 21.507999420166016,-27.482999801635742 19.139999389648438,-32.47100067138672 C17.40999984741211,-35.707000732421875 14.88700008392334,-38.45100021362305 11.805000305175781,-40.44300079345703 C8.88700008392334,-42.34400177001953 5.479000091552734,-43.35599899291992 1.9989999532699585,-43.35300064086914 C-0.9539999961853027,-43.30400085449219 -3.859999895095825,-42.5989990234375 -6.506999969482422,-41.28900146484375 C-9.154000282287598,-39.979000091552734 -11.477999687194824,-38.09700012207031 -13.307999610900879,-35.77899932861328 C-17.823999404907227,-30.40999984741211 -20.542999267578125,-23.760000228881836 -21.08099937438965,-16.764999389648438 C-21.08099937438965,-16.764999389648438 22.886999130249023,-16.525999069213867 22.886999130249023,-16.525999069213867z"></path></g><g opacity="1" transform="matrix(1,0,0,1,779.2119750976562,100.125)"><path fill="rgb(0,0,0)" fill-opacity="1" d=" M-42.95100021362305,-43.66899871826172 C-42.95100021362305,-43.66899871826172 -3.0889999866485596,-43.66899871826172 -3.0889999866485596,-43.66899871826172 C-3.0889999866485596,-43.66899871826172 -3.0889999866485596,-41.39699935913086 -3.0889999866485596,-41.39699935913086 C-5.125999927520752,-41.224998474121094 -7.064000129699707,-40.4630012512207 -8.670999526977539,-39.20399856567383 C-9.307999610900879,-38.685001373291016 -9.817999839782715,-38.027000427246094 -10.163999557495117,-37.28200149536133 C-10.506999969482422,-36.5359992980957 -10.678999900817871,-35.72100067138672 -10.663000106811523,-34.89899826049805 C-10.623000144958496,-33.51900100708008 -10.300000190734863,-32.1619987487793 -9.706000328063965,-30.913000106811523 C-8.501999855041504,-28.441999435424805 -7.171000003814697,-26.034000396728516 -5.71999979019165,-23.697999954223633 C-5.71999979019165,-23.697999954223633 -3.1689999103546143,-19.711999893188477 -3.1689999103546143,-19.711999893188477 C-3.1689999103546143,-19.711999893188477 3.2079999446868896,-9.187999725341797 3.2079999446868896,-9.187999725341797 C3.2079999446868896,-9.187999725341797 15.487000465393066,-24.77400016784668 15.487000465393066,-24.77400016784668 C17.19700050354004,-26.79400062561035 18.7549991607666,-28.940000534057617 20.150999069213867,-31.191999435424805 C20.856000900268555,-32.40599822998047 21.2549991607666,-33.775001525878906 21.30699920654297,-35.178001403808594 C21.30699920654297,-38.527000427246094 19.39299964904785,-40.47999954223633 15.487000465393066,-41.077999114990234 C15.487000465393066,-41.077999114990234 15.487000465393066,-43.349998474121094 15.487000465393066,-43.349998474121094 C15.487000465393066,-43.349998474121094 42.51300048828125,-43.349998474121094 42.51300048828125,-43.349998474121094 C42.51300048828125,-43.349998474121094 42.51300048828125,-41.077999114990234 42.51300048828125,-41.077999114990234 C38.31999969482422,-40.20199966430664 34.38100051879883,-38.38999938964844 30.993000030517578,-35.7760009765625 C26.648000717163086,-32.28200149536133 22.753999710083008,-28.266000747680664 19.39299964904785,-23.81800079345703 C19.39299964904785,-23.81800079345703 5.361999988555908,-6.078999996185303 5.361999988555908,-6.078999996185303 C5.361999988555908,-6.078999996185303 26.010000228881836,26.208999633789062 26.010000228881836,26.208999633789062 C28.486000061035156,30.256000518798828 31.486000061035156,33.95500183105469 34.9379997253418,37.21099853515625 C36.27000045776367,38.382999420166016 37.757999420166016,39.362998962402344 39.36399841308594,40.12099838256836 C41.0260009765625,40.792999267578125 42.768001556396484,41.26100158691406 44.54600143432617,41.51599884033203 C44.54600143432617,41.51599884033203 44.54600143432617,43.66899871826172 44.54600143432617,43.66899871826172 C44.54600143432617,43.66899871826172 3.4089999198913574,43.66899871826172 3.4089999198913574,43.66899871826172 C3.4089999198913574,43.66899871826172 3.4089999198913574,41.51599884033203 3.4089999198913574,41.51599884033203 C5.193999767303467,41.27199935913086 6.947999954223633,40.81700134277344 8.630000114440918,40.1609992980957 C9.543000221252441,39.77399826049805 10.324000358581543,39.125 10.869999885559082,38.29499816894531 C11.416000366210938,37.46500015258789 11.704000473022461,36.49100112915039 11.699999809265137,35.49700164794922 C11.256999969482422,32.29100036621094 9.961999893188477,29.26300048828125 7.953000068664551,26.726999282836914 C7.953000068664551,26.726999282836914 5.7210001945495605,23.259000778198242 5.7210001945495605,23.259000778198242 C5.7210001945495605,23.259000778198242 -4.763000011444092,6.835999965667725 -4.763000011444092,6.835999965667725 C-4.763000011444092,6.835999965667725 -18.275999069213867,23.458999633789062 -18.275999069213867,23.458999633789062 C-20.054000854492188,25.51099967956543 -21.656999588012695,27.711999893188477 -23.059999465942383,30.035999298095703 C-23.840999603271484,31.309999465942383 -24.268999099731445,32.768001556396484 -24.297000885009766,34.26100158691406 C-24.297000885009766,38.007999420166016 -21.46500015258789,40.400001525878906 -15.805000305175781,41.51599884033203 C-15.805000305175781,41.51599884033203 -15.805000305175781,43.66899871826172 -15.805000305175781,43.66899871826172 C-15.805000305175781,43.66899871826172 -44.54600143432617,43.66899871826172 -44.54600143432617,43.66899871826172 C-44.54600143432617,43.66899871826172 -44.54600143432617,41.51599884033203 -44.54600143432617,41.51599884033203 C-42.91999816894531,41.24300003051758 -41.32899856567383,40.78900146484375 -39.801998138427734,40.1609992980957 C-38.24700164794922,39.472999572753906 -36.78900146484375,38.5890007019043 -35.45800018310547,37.529998779296875 C-31.516000747680664,34.14699935913086 -27.94700050354004,30.351999282836914 -24.81399917602539,26.208999633789062 C-24.81399917602539,26.208999633789062 -6.5980000495910645,3.6470000743865967 -6.5980000495910645,3.6470000743865967 C-6.5980000495910645,3.6470000743865967 -25.731000900268555,-25.253000259399414 -25.731000900268555,-25.253000259399414 C-28.281999588012695,-29.48200035095215 -31.24799919128418,-33.448001861572266 -34.58000183105469,-37.09199905395508 C-36.97600173950195,-39.194000244140625 -39.849998474121094,-40.67300033569336 -42.95100021362305,-41.39699935913086 C-42.95100021362305,-41.39699935913086 -42.95100021362305,-43.66899871826172 -42.95100021362305,-43.66899871826172z"></path></g><g opacity="1" transform="matrix(1,0,0,1,857.4010009765625,87.96299743652344)"><path fill="rgb(0,0,0)" fill-opacity="1" d=" M-2.430999994277954,-31.506999969482422 C-2.430999994277954,-31.506999969482422 23.55900001525879,-31.506999969482422 23.55900001525879,-31.506999969482422 C23.55900001525879,-31.506999969482422 23.55900001525879,-27.520999908447266 23.55900001525879,-27.520999908447266 C23.55900001525879,-27.520999908447266 -2.430999994277954,-27.520999908447266 -2.430999994277954,-27.520999908447266 C-2.430999994277954,-27.520999908447266 -2.430999994277954,31.993000030517578 -2.430999994277954,31.993000030517578 C-2.9210000038146973,37.37200164794922 -1.6299999952316284,42.762001037597656 1.2359999418258667,47.34000015258789 C2.563999891281128,49.08599853515625 4.322000026702881,50.45899963378906 6.339000225067139,51.32600021362305 C8.479000091552734,52.28900146484375 10.803000450134277,52.77899932861328 13.154999732971191,52.76100158691406 C15.829999923706055,52.85499954223633 18.476999282836914,52.20600128173828 20.80900001525879,50.88800048828125 C23.43899917602539,49.000999450683594 25.719999313354492,46.66699981689453 27.545000076293945,43.992000579833984 C27.545000076293945,43.992000579833984 29.059999465942383,45.30699920654297 29.059999465942383,45.30699920654297 C26.958999633789062,49.266998291015625 23.650999069213867,52.45100021362305 19.613000869750977,54.395999908447266 C14.840999603271484,56.534000396728516 9.647000312805176,57.55699920654297 4.425000190734863,57.3849983215332 C-1.8170000314712524,57.895999908447266 -8.039999961853027,56.23400115966797 -13.194000244140625,52.68199920654297 C-15.119000434875488,51.18899917602539 -16.513999938964844,49.12200164794922 -17.18000030517578,46.78200149536133 C-17.961000442504883,42.724998474121094 -18.26799964904785,38.59199905395508 -18.097000122070312,34.46500015258789 C-18.097000122070312,34.46500015258789 -18.097000122070312,-27.60099983215332 -18.097000122070312,-27.60099983215332 C-18.097000122070312,-27.60099983215332 -29.05900001525879,-27.60099983215332 -29.05900001525879,-27.60099983215332 C-29.05900001525879,-27.60099983215332 -29.05900001525879,-29.235000610351562 -29.05900001525879,-29.235000610351562 C-24.319000244140625,-30.889999389648438 -20.09000015258789,-33.74700164794922 -16.7810001373291,-37.5260009765625 C-14.64900016784668,-39.749000549316406 -12.774999618530273,-42.209999084472656 -11.201000213623047,-44.861000061035156 C-9.565999984741211,-47.939998626708984 -8.230999946594238,-51.17100143432617 -7.214000225067139,-54.50699996948242 C-7.214000225067139,-54.50699996948242 -6.177999973297119,-57.895999908447266 -6.177999973297119,-57.895999908447266 C-6.177999973297119,-57.895999908447266 -2.191999912261963,-57.895999908447266 -2.191999912261963,-57.895999908447266 C-2.191999912261963,-57.895999908447266 -2.430999994277954,-31.506999969482422 -2.430999994277954,-31.506999969482422z"></path></g></g></g></svg>